<?xml version="1.0" encoding="UTF-8"?>
<svg width="52px" height="36px" viewBox="0 0 52 36" version="1.1" xmlns="http://www.w3.org/2000/svg" xmlns:xlink="http://www.w3.org/1999/xlink">
    <title>Combined Shape</title>
    <defs>
        <linearGradient x1="0%" y1="26.035503%" x2="100%" y2="73.964497%" id="linearGradient-1">
            <stop stop-color="#008DFF" offset="0%"></stop>
            <stop stop-color="#FF00E6" offset="100%"></stop>
        </linearGradient>
        <linearGradient x1="50%" y1="0%" x2="50%" y2="100%" id="linearGradient-2">
            <stop stop-color="#000000" stop-opacity="0" offset="0%"></stop>
            <stop stop-color="#000000" stop-opacity="0.359866696" offset="100%"></stop>
        </linearGradient>
        <path d="M47,0 C49.7614237,-5.07265313e-16 52,2.23857625 52,5 L52,31 C52,33.7614237 49.7614237,36 47,36 L5,36 C2.23857625,36 3.38176876e-16,33.7614237 0,31 L0,5 C-3.38176876e-16,2.23857625 2.23857625,5.07265313e-16 5,0 L47,0 Z M4.5,3 C3.67157288,3 3,3.67157288 3,4.5 C3,5.32842712 3.67157288,6 4.5,6 C5.32842712,6 6,5.32842712 6,4.5 C6,3.67157288 5.32842712,3 4.5,3 Z M8.1,3 C7.27157288,3 6.6,3.67157288 6.6,4.5 C6.6,5.32842712 7.27157288,6 8.1,6 C8.92842712,6 9.6,5.32842712 9.6,4.5 C9.6,3.67157288 8.92842712,3 8.1,3 Z M11.7,3 C10.8715729,3 10.2,3.67157288 10.2,4.5 C10.2,5.32842712 10.8715729,6 11.7,6 C12.5284271,6 13.2,5.32842712 13.2,4.5 C13.2,3.67157288 12.5284271,3 11.7,3 Z" id="path-3"></path>
        <linearGradient x1="50%" y1="1.12543706%" x2="50%" y2="100%" id="linearGradient-4">
            <stop stop-color="#FFF44B" offset="0%"></stop>
            <stop stop-color="#FF5700" offset="100%"></stop>
        </linearGradient>
        <polygon id="path-5" points="28.2272727 4 28.2272727 15.8006993 33.9545455 15.8006993 23.7272727 31 23.7272727 19.1993007 18 19.1993007"></polygon>
        <filter x="-43.9%" y="-18.5%" width="187.7%" height="151.9%" filterUnits="objectBoundingBox" id="filter-7">
            <feOffset dx="0" dy="2" in="SourceAlpha" result="shadowOffsetOuter1"></feOffset>
            <feGaussianBlur stdDeviation="2" in="shadowOffsetOuter1" result="shadowBlurOuter1"></feGaussianBlur>
            <feComposite in="shadowBlurOuter1" in2="SourceAlpha" operator="out" result="shadowBlurOuter1"></feComposite>
            <feColorMatrix values="0 0 0 0 0   0 0 0 0 0   0 0 0 0 0  0 0 0 0.5 0" type="matrix" in="shadowBlurOuter1"></feColorMatrix>
        </filter>
    </defs>
    <g id="Page-1" stroke="none" stroke-width="1" fill="none" fill-rule="evenodd">
        <g id="Combined-Shape">
            <use fill="url(#linearGradient-1)" xlink:href="#path-3"></use>
            <use fill="url(#linearGradient-2)" xlink:href="#path-3"></use>
        </g>
        <mask id="mask-6" fill="white">
            <use xlink:href="#path-5"></use>
        </mask>
        <g id="Path">
            <use fill="black" fill-opacity="1" filter="url(#filter-7)" xlink:href="#path-5"></use>
            <path stroke="#FFFFFF" stroke-width="1" d="M27.7272727,5.63871263 L27.7272727,16.3006993 L33.0154531,16.3006993 L24.2272727,29.3612874 L24.2272727,18.6993007 L18.9390923,18.6993007 L27.7272727,5.63871263 Z" stroke-linejoin="square" fill="url(#linearGradient-4)" fill-rule="evenodd"></path>
        </g>
    </g>
</svg>